<svg width="14" height="15" viewBox="0 0 14 15" fill="none" xmlns="http://www.w3.org/2000/svg">
<path d="M7.00312 4.40623C5.01562 4.40623 3.41249 6.00935 3.41249 7.99685C3.41249 9.98435 5.01562 11.5875 7.00312 11.5875C8.99062 11.5875 10.5937 9.98435 10.5937 7.99685C10.5937 6.00935 8.99062 4.40623 7.00312 4.40623ZM7.00312 10.3312C5.71874 10.3312 4.66874 9.28435 4.66874 7.99685C4.66874 6.70935 5.71562 5.66248 7.00312 5.66248C8.29062 5.66248 9.33749 6.70935 9.33749 7.99685C9.33749 9.28435 8.28749 10.3312 7.00312 10.3312ZM11.5781 4.25935C11.5781 4.72498 11.2031 5.09685 10.7406 5.09685C10.275 5.09685 9.90312 4.72185 9.90312 4.25935C9.90312 3.79685 10.2781 3.42185 10.7406 3.42185C11.2031 3.42185 11.5781 3.79685 11.5781 4.25935ZM13.9562 5.10935C13.9031 3.98748 13.6469 2.99373 12.825 2.17498C12.0062 1.35623 11.0125 1.09998 9.89062 1.04373C8.73437 0.978101 5.26874 0.978101 4.11249 1.04373C2.99374 1.09685 1.99999 1.3531 1.17812 2.17185C0.356244 2.9906 0.103119 3.98435 0.0468689 5.10623C-0.0187561 6.26248 -0.0187561 9.7281 0.0468689 10.8843C0.0999939 12.0062 0.356244 13 1.17812 13.8187C1.99999 14.6375 2.99062 14.8937 4.11249 14.95C5.26874 15.0156 8.73437 15.0156 9.89062 14.95C11.0125 14.8968 12.0062 14.6406 12.825 13.8187C13.6437 13 13.9 12.0062 13.9562 10.8843C14.0219 9.7281 14.0219 6.2656 13.9562 5.10935ZM12.4625 12.125C12.2187 12.7375 11.7469 13.2094 11.1312 13.4562C10.2094 13.8219 8.02187 13.7375 7.00312 13.7375C5.98437 13.7375 3.79374 13.8187 2.87499 13.4562C2.26249 13.2125 1.79062 12.7406 1.54374 12.125C1.17812 11.2031 1.26249 9.0156 1.26249 7.99685C1.26249 6.9781 1.18124 4.78748 1.54374 3.86873C1.78749 3.25623 2.25937 2.78435 2.87499 2.53748C3.79687 2.17185 5.98437 2.25623 7.00312 2.25623C8.02187 2.25623 10.2125 2.17498 11.1312 2.53748C11.7437 2.78123 12.2156 3.2531 12.4625 3.86873C12.8281 4.7906 12.7437 6.9781 12.7437 7.99685C12.7437 9.0156 12.8281 11.2062 12.4625 12.125Z" fill="white"/>
</svg>
