<svg width="48" height="48" viewBox="0 0 48 48" fill="none"
    xmlns="http://www.w3.org/2000/svg">
    <path fill-rule="evenodd" clip-rule="evenodd" d="M38.0344 24.4125V24.2719V24.1313V24V23.8594V23.7188V23.5781L38.025 23.4375L38.0156 23.2969L38.0062 23.1563L37.9969 23.0156L37.9875 22.875L37.9781 22.7344L37.9687 22.5938L37.95 22.4531L37.9312 22.3125L37.9125 22.1719L37.8937 22.0313L37.875 21.8906L37.8562 21.75L37.8375 21.6094L37.8094 21.4688L37.7812 21.3281L37.7531 21.1875L37.725 21.0469L37.6969 20.9063L37.6687 20.7656L37.6406 20.625L37.6031 20.4844L37.5656 20.3438L37.5281 20.2125L37.4906 20.0813L37.4531 19.95L37.4156 19.8188L37.3687 19.6875L37.3219 19.5563L37.275 19.425L37.2281 19.2938L37.1812 19.1625L37.1344 19.0313L37.0875 18.9L37.0406 18.7688L36.9844 18.6375L36.9281 18.5063L36.8719 18.375L36.8156 18.2438L36.7594 18.1125L36.7031 17.9813L36.6469 17.85L36.5812 17.7281L36.5156 17.6063L36.45 17.4844L36.3844 17.3625L36.3187 17.2406L36.2531 17.1188L36.1875 16.9969L36.1125 16.875L36.0375 16.7531L35.9625 16.6313L35.8875 16.5094L35.8125 16.3875L35.7375 16.2656L35.6625 16.1531L35.5875 16.0406L35.5031 15.9281L35.4187 15.8156L35.3344 15.7031L35.25 15.5906L35.1656 15.4781L35.0812 15.3656L34.9969 15.2531L34.9125 15.1406L34.8281 15.0281L34.7344 14.925L34.6406 14.8219L34.5469 14.7188L34.4531 14.6156L34.3594 14.5125L34.2656 14.4094L34.1719 14.3063L34.0781 14.2031L33.9844 14.1L33.9281 14.0438L33.825 13.9406L33.7219 13.8469L33.6187 13.7531L33.5156 13.6594L33.4125 13.5656L33.3094 13.4719L33.2062 13.3781L33.1031 13.2844L33 13.1906L32.8875 13.0969L32.775 13.0125L32.6625 12.9281L32.55 12.8438L32.4375 12.7594L32.325 12.675L32.2125 12.5906L32.1 12.5063L31.9875 12.4219L31.875 12.375L31.7625 12.3L31.6406 12.225L31.5187 12.15L31.3969 12.075L31.275 12L31.1531 11.925L31.0312 11.85L30.9094 11.7844L30.7875 11.7188L30.6656 11.6531L30.5437 11.5875L30.4219 11.5219L30.3 11.4563L30.1781 11.3906L30.0562 11.325L29.925 11.2688L29.7937 11.2125L29.6625 11.1563L29.5312 11.1L29.4562 11.0719L29.325 11.0156L29.1937 10.9594L29.0625 10.9125L28.9312 10.8656L28.8 10.8188L28.6687 10.7719L28.5375 10.725L28.4062 10.6781L28.275 10.6313L28.1437 10.5938L28.0125 10.5563L27.8812 10.5188L27.75 10.4813L27.6187 10.4438L27.4781 10.4063L27.3375 10.3688L27.1969 10.3406L27.0562 10.3125L26.9156 10.2844L26.775 10.2563L26.6344 10.2281L26.4937 10.2L26.3531 10.1719L26.2125 10.1531L26.0719 10.1344L25.9312 10.1156L25.7906 10.0969L25.65 10.0781L25.5094 10.0594L25.3687 10.0406L25.2281 10.0313L25.0875 10.0219L24.9469 10.0125L24.8062 10.0031L24.6656 9.99376L24.525 9.98438L24.3844 9.97501H24.2437H24.1031H23.9625H23.8219H23.6812H23.5406L23.4 9.98438L23.2594 9.99376L23.1187 10.0031L22.9781 10.0125L22.8375 10.0219L22.6969 10.0313L22.5562 10.0406L22.4156 10.0594L22.275 10.0781L22.1344 10.0969L21.9937 10.1156L21.8531 10.1344L21.7125 10.1531L21.5719 10.1719L21.4312 10.2L21.2906 10.2281L21.15 10.2563L21.0094 10.2844L20.8687 10.3125L20.7281 10.3406L20.5875 10.3688L20.4469 10.4063L20.3062 10.4438L20.175 10.4813L20.0437 10.5188L19.9125 10.5563L19.7812 10.5938L19.65 10.6406L19.5187 10.6875L19.3875 10.7344L19.2562 10.7813L19.125 10.8281L18.9937 10.875L18.8625 10.9219L18.7312 10.9688L18.6 11.025L18.4687 11.0813L18.3375 11.1375L18.2062 11.1938L18.075 11.25L17.9437 11.3063L17.8125 11.3625L17.6906 11.4281L17.5687 11.4938L17.4469 11.5594L17.325 11.625L17.2031 11.6906L17.0812 11.7563L16.9593 11.8219L16.8375 11.8969L16.7156 11.9719L16.5937 12.0469L16.4719 12.1219L16.35 12.1969L16.2281 12.2719L16.1156 12.3469L16.0031 12.4219L15.8906 12.5063L15.7781 12.5906L15.6656 12.675L15.5531 12.7594L15.4406 12.8438L15.3281 12.9281L15.2156 13.0125L15.1031 13.0969L14.9906 13.1813L14.8875 13.275L14.7844 13.3688L14.6812 13.4625L14.5781 13.5563L14.475 13.65L14.3719 13.7438L14.2687 13.8375L14.1656 13.9313L14.0625 14.025L14.0062 14.0813L13.9031 14.1844L13.8094 14.2875L13.7156 14.3906L13.6219 14.4938L13.5281 14.5969L13.4344 14.7L13.3406 14.8031L13.2469 14.9063L13.1531 15.0094L13.0594 15.1219L12.975 15.2344L12.8906 15.3469L12.8062 15.4594L12.7219 15.5719L12.6375 15.6844L12.5531 15.7969L12.4687 15.9094L12.3844 16.0219L12.375 16.125L12.3 16.2375L12.225 16.3594L12.15 16.4813L12.075 16.6031L12 16.725L11.925 16.8469L11.85 16.9688L11.7844 17.0906L11.7187 17.2125L11.6531 17.3344L11.5875 17.4563L11.5219 17.5781L11.4562 17.7L11.3906 17.8219L11.325 17.9438L11.2687 18.075L11.2125 18.2063L11.1562 18.3375L11.1 18.4688L11.0719 18.5438L11.0156 18.675L10.9594 18.8063L10.9125 18.9375L10.8656 19.0688L10.8187 19.2L10.7719 19.3313L10.725 19.4625L10.6781 19.5938L10.6312 19.725L10.5937 19.8563L10.5562 19.9875L10.5187 20.1188L10.4812 20.25L10.4437 20.3813L10.4062 20.5219L10.3687 20.6625L10.3406 20.8031L10.3125 20.9438L10.2844 21.0844L10.2562 21.225L10.2281 21.3656L10.2 21.5063L10.1719 21.6469L10.1531 21.7875L10.1344 21.9281L10.1156 22.0688L10.0969 22.2094L10.0781 22.35L10.0594 22.4906L10.0406 22.6313L10.0312 22.7719L10.0219 22.9125L10.0125 23.0531L10.0031 23.1938L9.99373 23.3344L9.98435 23.475L9.97498 23.6156V23.7563V23.8969V24.0375V24.1781V24.3188V24.4594L9.98435 24.6L9.99373 24.7406L10.0031 24.8813L10.0125 25.0219L10.0219 25.1625L10.0312 25.3031L10.0406 25.4438L10.0594 25.5844L10.0781 25.725L10.0969 25.8656L10.1156 26.0063L10.1344 26.1469L10.1531 26.2875L10.1719 26.4281L10.2 26.5688L10.2281 26.7094L10.2562 26.85L10.2844 26.9906L10.3125 27.1313L10.3406 27.2719L10.3687 27.4125L10.4062 27.5531L10.4437 27.6938L10.4812 27.825L10.5187 27.9563L10.5562 28.0875L10.5937 28.2188L10.6406 28.35L10.6875 28.4813L10.7344 28.6125L10.7812 28.7438L10.8281 28.875L10.875 29.0063L10.9219 29.1375L10.9687 29.2688L11.025 29.4L11.0812 29.5313L11.1375 29.6625L11.1937 29.7938L11.25 29.925L11.3062 30.0563L11.3625 30.1875L11.4281 30.3094L11.4937 30.4313L11.5594 30.5531L11.625 30.675L11.6906 30.7969L11.7562 30.9188L11.8219 31.0406L11.8969 31.1625L11.9719 31.2844L12.0469 31.4063L12.1219 31.5281L12.1969 31.65L12.2718 31.7719L12.3469 31.8844L12.4219 31.9969L12.5062 32.1094L12.5906 32.2219L12.675 32.3344L12.7594 32.4469L12.8437 32.5594L12.9281 32.6719L13.0125 32.7844L13.0969 32.8969L13.1812 33.0094L13.275 33.1219L13.3687 33.225L13.4625 33.3281L13.5562 33.4313L13.65 33.5344L13.7437 33.6375L13.8375 33.7406L13.9312 33.8438L14.025 33.9469L14.0812 34.0031L14.1844 34.1063L14.2875 34.2L14.3906 34.2938L14.4937 34.3875L14.5969 34.4813L14.7 34.575L14.8031 34.6688L14.9062 34.7625L15.0094 34.8563L15.1219 34.95L15.2344 35.0344L15.3469 35.1188L15.4593 35.2031L15.5719 35.2875L15.6844 35.3719L15.7969 35.4563L15.9094 35.5406L16.0218 35.625L16.1344 35.7L16.2469 35.775L16.3687 35.85L16.4906 35.925L16.6125 36L16.7344 36.075L16.8562 36.15L16.9781 36.225L17.1 36.2906L17.2219 36.3563L17.3437 36.4219L17.4656 36.4875L17.5875 36.5531L17.7093 36.6188L17.8312 36.6844L17.9531 36.75L18.0843 36.8063L18.2156 36.8625L18.3469 36.9188L18.4781 36.975L18.5531 37.0031L18.6844 37.0594L18.8156 37.1156L18.9469 37.1625L19.0781 37.2094L19.2093 37.2563L19.3406 37.3031L19.4719 37.35L19.6031 37.3969L19.7344 37.4438L19.8656 37.4906L19.9969 37.5281L20.1281 37.5656L20.2594 37.6031L20.3906 37.6406L20.5312 37.6781L20.6719 37.7156L20.8125 37.7438L20.9531 37.7719L21.0937 37.8L21.2344 37.8281L21.375 37.8563L21.5156 37.8844L21.6562 37.9125L21.7969 37.9313L21.9375 37.95L22.0781 37.9688L22.2187 37.9875L22.3594 38.0063L22.5 38.025L22.6406 38.0438L22.7812 38.0531L22.9219 38.0625L23.0625 38.0719L23.2031 38.0813L23.3437 38.0906L23.4844 38.1L23.625 38.1094H23.7656H23.9062H24.0469H24.1875H24.3281H24.4687L24.6094 38.1L24.75 38.0906L24.8906 38.0813L25.0312 38.0719L25.1719 38.0625L25.3125 38.0531L25.4531 38.0438L25.5937 38.025L25.7344 38.0063L25.875 37.9875L26.0156 37.9688L26.1562 37.95L26.2969 37.9313L26.4375 37.9125L26.5781 37.8844L26.7187 37.8563L26.8594 37.8281L27 37.8L27.1406 37.7719L27.2812 37.7438L27.4219 37.7156L27.5625 37.6781L27.7031 37.6406L27.8344 37.6031L27.9656 37.5656L28.0969 37.5281L28.2281 37.4906L28.3594 37.4438L28.4906 37.3969L28.6219 37.35L28.7531 37.3031L28.8844 37.2563L29.0156 37.2094L29.1469 37.1625L29.2781 37.1156L29.4094 37.0594L29.5406 37.0031L29.6719 36.9469L29.8031 36.8906L29.9344 36.8344L30.0656 36.7781L30.1969 36.7219L30.3187 36.6563L30.4406 36.5906L30.5625 36.525L30.6844 36.4594L30.8062 36.3938L30.9281 36.3281L31.05 36.2625L31.1719 36.1969L31.2937 36.1219L31.4156 36.0469L31.5375 35.9719L31.6594 35.8969L31.7812 35.8219L31.8937 35.7469L32.0062 35.6719L32.1187 35.5875L32.2312 35.5031L32.3437 35.4188L32.4562 35.3344L32.5687 35.25L32.6812 35.1656L32.7937 35.0813L32.9062 34.9969L33.0187 34.9125L33.1312 34.8188L33.2344 34.725L33.3375 34.6313L33.4406 34.5375L33.5437 34.4438L33.6469 34.35L33.75 34.2563L33.8531 34.1625L33.9562 34.0688L34.0125 34.0125L34.1156 33.9094L34.2094 33.8063L34.3031 33.7031L34.3969 33.6L34.4906 33.4969L34.5844 33.3938L34.6781 33.2906L34.7719 33.1875L34.8656 33.0844L34.9594 32.9719L35.0437 32.8594L35.1281 32.7469L35.2125 32.6344L35.2969 32.5219L35.3812 32.4094L35.4656 32.2969L35.55 32.1844L35.6344 32.0719L35.7094 31.9594L35.7844 31.8469L35.8594 31.725L35.9344 31.6031L36.0094 31.4813L36.0844 31.3594L36.1594 31.2375L36.2344 31.1156L36.3 30.9938L36.3656 30.8719L36.4312 30.75L36.4969 30.6281L36.5625 30.5063L36.6281 30.3844L36.6937 30.2625L36.7594 30.1406L36.8156 30.0094L36.8719 29.8781L36.9281 29.7469L36.9844 29.6156L37.0125 29.5406L37.0687 29.4094L37.125 29.2781L37.1719 29.1469L37.2187 29.0156L37.2656 28.8844L37.3125 28.7531L37.3594 28.6219L37.4062 28.4906L37.4531 28.3594L37.5 28.2281L37.5375 28.0969L37.575 27.9656L37.6125 27.8344L37.65 27.7031L37.6875 27.5625L37.725 27.4219L37.7531 27.2813L37.7812 27.1406L37.8094 27L37.8375 26.8594L37.8656 26.7188L37.8937 26.5781L37.9219 26.4375L37.9406 26.2969L37.9594 26.1563L37.9781 26.0156L37.9969 25.875L38.0156 25.7344L38.0344 25.5938L38.0531 25.4531L38.0625 25.3125L38.0719 25.1719L38.0812 25.0313L38.0906 24.8906L38.1 24.75L38.1094 24.6094L38.0344 24.4125ZM37.3781 23.7375V23.8688V24V24.1313V24.2625V24.3938V24.525L37.3687 24.6563L37.3594 24.7875L37.35 24.9188L37.3406 25.05L37.3312 25.1813L37.3219 25.3125L37.3125 25.4438L37.2937 25.575L37.275 25.7063L37.2562 25.8375L37.2375 25.9688L37.2187 26.1L37.2 26.2313L37.1812 26.3625L37.1531 26.4938L37.125 26.625L37.0969 26.7563L37.0687 26.8875L37.0406 27.0188L37.0125 27.15L36.9844 27.2813L36.9469 27.4125L36.9094 27.5438L36.8719 27.675L36.8344 27.8063L36.7969 27.9375L36.7594 28.0688L36.7219 28.2L36.675 28.3313L36.6281 28.4531L36.5812 28.575L36.5344 28.6969L36.4875 28.8188L36.4406 28.9406L36.3937 29.0625L36.3469 29.1844L36.3187 29.25L36.2625 29.3719L36.2062 29.4938L36.15 29.6156L36.0937 29.7375L36.0375 29.8594L35.9812 29.9813L35.925 30.1031L35.8594 30.225L35.7937 30.3469L35.7281 30.4688L35.6625 30.5813L35.5969 30.6938L35.5312 30.8063L35.4656 30.9188L35.4 31.0313L35.325 31.1438L35.25 31.2563L35.175 31.3688L35.1 31.4813L35.025 31.5938L34.95 31.7063L34.875 31.8188L34.8 31.9313L34.7156 32.0344L34.6312 32.1375L34.5469 32.2406L34.4625 32.3438L34.3781 32.4469L34.2937 32.55L34.2094 32.6531L34.125 32.7563L34.0406 32.8594L33.9469 32.9625L33.8531 33.0656L33.7594 33.1594L33.6656 33.2531L33.5719 33.3469L33.4781 33.4406L33.4219 33.4969L33.3281 33.5906L33.2344 33.6844L33.1406 33.7781L33.0469 33.8719L32.9437 33.9656L32.8406 34.05L32.7375 34.1344L32.6344 34.2188L32.5312 34.3031L32.4281 34.3875L32.325 34.4719L32.2219 34.5563L32.1187 34.6406L32.0156 34.725L31.9125 34.8L31.8 34.875L31.6875 34.95L31.575 35.025L31.4625 35.1L31.35 35.175L31.2375 35.25L31.125 35.325L31.0125 35.4L30.9 35.4656L30.7875 35.5313L30.675 35.5969L30.5625 35.6625L30.45 35.7281L30.3281 35.7938L30.2062 35.8594L30.0844 35.925L29.9625 35.9813L29.8406 36.0375L29.7187 36.0938L29.5969 36.15L29.475 36.2063L29.3531 36.2625L29.2312 36.3188L29.1094 36.3656L28.9875 36.4125L28.8656 36.4594L28.7437 36.5063L28.6219 36.5531L28.5 36.6L28.3781 36.6469L28.2469 36.6938L28.1156 36.7313L27.9844 36.7688L27.8531 36.8063L27.7219 36.8438L27.5906 36.8813L27.4594 36.9188L27.3281 36.9563L27.1969 36.9844L27.0656 37.0125L26.9344 37.0406L26.8031 37.0688L26.6719 37.0969L26.5406 37.125L26.4094 37.1531L26.2781 37.1719L26.1469 37.1906L26.0156 37.2094L25.8844 37.2281L25.7531 37.2469L25.6219 37.2656L25.4906 37.2844L25.3594 37.2938L25.2281 37.3031L25.0969 37.3125L24.9656 37.3219L24.8344 37.3313L24.7031 37.3406L24.5719 37.35H24.4406H24.3094H24.1781H24.0469H23.9156H23.7843H23.6531H23.5219L23.3906 37.3406L23.2594 37.3313L23.1281 37.3219L22.9969 37.3125L22.8656 37.3031L22.7344 37.2938L22.6031 37.2844L22.4718 37.2656L22.3406 37.2469L22.2094 37.2281L22.0781 37.2094L21.9469 37.1906L21.8156 37.1719L21.6844 37.1531L21.5531 37.125L21.4219 37.0969L21.2906 37.0688L21.1594 37.0406L21.0281 37.0125L20.8968 36.9844L20.7656 36.9563L20.6344 36.9188L20.5031 36.8813L20.3719 36.8438L20.2406 36.8063L20.1094 36.7688L19.9781 36.7313L19.8469 36.6938L19.7156 36.6469L19.5937 36.6L19.4719 36.5531L19.35 36.5063L19.2281 36.4594L19.1062 36.4125L18.9844 36.3656L18.8625 36.3188L18.7969 36.2906L18.675 36.2344L18.5531 36.1781L18.4312 36.1219L18.3094 36.0656L18.1875 36.0094L18.0656 35.9531L17.9437 35.8969L17.8219 35.8313L17.7 35.7656L17.5781 35.7L17.4656 35.6344L17.3531 35.5688L17.2406 35.5031L17.1281 35.4375L17.0156 35.3719L16.9031 35.2969L16.7906 35.2219L16.6781 35.1469L16.5656 35.0719L16.4531 34.9969L16.3406 34.9219L16.2281 34.8469L16.1156 34.7719L16.0125 34.6875L15.9094 34.6031L15.8062 34.5188L15.7031 34.4344L15.6 34.35L15.4969 34.2656L15.3937 34.1813L15.2906 34.0969L15.1875 34.0125L15.0843 33.9188L14.9812 33.825L14.8875 33.7313L14.7937 33.6375L14.7 33.5438L14.6062 33.45L14.55 33.3938L14.4562 33.3L14.3625 33.2063L14.2687 33.1125L14.175 33.0188L14.0812 32.9156L13.9969 32.8125L13.9125 32.7094L13.8281 32.6063L13.7437 32.5031L13.6594 32.4L13.575 32.2969L13.4906 32.1938L13.4062 32.0906L13.3219 31.9875L13.2469 31.8844L13.1719 31.7719L13.0969 31.6594L13.0218 31.5469L12.9469 31.4344L12.8719 31.3219L12.7969 31.2094L12.7219 31.0969L12.6468 30.9844L12.5812 30.8719L12.5156 30.7594L12.45 30.6469L12.3844 30.5344L12.3187 30.4219L12.2531 30.3L12.1875 30.1781L12.1219 30.0563L12.0656 29.9344L12.0094 29.8125L11.9531 29.6906L11.8969 29.5688L11.8406 29.4469L11.7844 29.325L11.7281 29.2031L11.6812 29.0813L11.6344 28.9594L11.5875 28.8375L11.5406 28.7156L11.4937 28.5938L11.4469 28.4719L11.4 28.35L11.3531 28.2188L11.3156 28.0875L11.2781 27.9563L11.2406 27.825L11.2031 27.6938L11.1656 27.5625L11.1281 27.4313L11.0906 27.3L11.0625 27.1688L11.0344 27.0375L11.0062 26.9063L10.9781 26.775L10.95 26.6438L10.9219 26.5125L10.8937 26.3813L10.875 26.25L10.8562 26.1188L10.8375 25.9875L10.8187 25.8563L10.8 25.725L10.7812 25.5938L10.7625 25.4625L10.7531 25.3313L10.7437 25.2L10.7344 25.0688L10.725 24.9375L10.7156 24.8063L10.7062 24.675L10.6969 24.5438V24.4125V24.2813V24.15V24.0188V23.8875V23.7563V23.625V23.4938L10.7062 23.3625L10.7156 23.2313L10.725 23.1L10.7344 22.9688L10.7437 22.8375L10.7531 22.7063L10.7625 22.575L10.7812 22.4438L10.8 22.3125L10.8187 22.1813L10.8375 22.05L10.8562 21.9188L10.875 21.7875L10.8937 21.6563L10.9219 21.525L10.95 21.3938L10.9781 21.2625L11.0062 21.1313L11.0344 21L11.0625 20.8688L11.0906 20.7375L11.1281 20.6063L11.1656 20.475L11.2031 20.3438L11.2406 20.2125L11.2781 20.0813L11.3156 19.95L11.3531 19.8188L11.4 19.6875L11.4469 19.5656L11.4937 19.4438L11.5406 19.3219L11.5875 19.2L11.6344 19.0781L11.6812 18.9563L11.7281 18.8344L11.7562 18.7688L11.8125 18.6469L11.8687 18.525L11.925 18.4031L11.9812 18.2813L12.0375 18.1594L12.0937 18.0375L12.15 17.9156L12.2156 17.7938L12.2812 17.6719L12.3469 17.55L12.4125 17.4375L12.4781 17.325L12.5437 17.2125L12.6094 17.1L12.675 16.9875L12.75 16.875L12.825 16.7625L12.9 16.65L12.975 16.5375L13.05 16.425L13.125 16.3125L13.2 16.2L13.275 16.0875L13.3594 15.9844L13.4437 15.8813L13.5281 15.7781L13.6125 15.675L13.6969 15.5719L13.7812 15.4688L13.8656 15.3656L13.95 15.2625L14.0344 15.1594L14.1281 15.0563L14.2219 14.9531L14.3156 14.8594L14.4094 14.7656L14.5031 14.6719L14.5969 14.5781L14.6531 14.5219L14.7469 14.4281L14.8406 14.3344L14.9344 14.2406L15.0375 14.1469L15.1406 14.0531L15.2437 13.9688L15.3469 13.8844L15.45 13.8L15.5531 13.7156L15.6562 13.6313L15.7594 13.5469L15.8625 13.4625L15.9656 13.3781L16.0687 13.2938L16.1719 13.2188L16.2844 13.1438L16.3968 13.0688L16.5094 12.9938L16.6219 12.9188L16.7344 12.8438L16.8469 12.7688L16.9593 12.6938L17.0719 12.6188L17.1844 12.5531L17.2969 12.4875L17.4094 12.4219L17.5218 12.3563L17.6344 12.2906L17.7562 12.225L17.8781 12.1594L18 12.0938L18.1219 12.0375L18.2437 11.9813L18.3656 11.925L18.4875 11.8688L18.6094 11.8125L18.7312 11.7563L18.8531 11.7L18.975 11.6531L19.0969 11.6063L19.2187 11.5594L19.3406 11.5125L19.4625 11.4656L19.5843 11.4188L19.7062 11.3719L19.8375 11.325L19.9687 11.2875L20.1 11.25L20.2312 11.2125L20.3625 11.175L20.4937 11.1375L20.625 11.1L20.7562 11.0625L20.8875 11.0344L21.0187 11.0063L21.15 10.9781L21.2812 10.95L21.4125 10.9219L21.5437 10.8938L21.675 10.8656L21.8062 10.8469L21.9375 10.8281L22.0687 10.8094L22.2 10.7906L22.3312 10.7719L22.4625 10.7531L22.5937 10.7344L22.725 10.725L22.8562 10.7156L22.9875 10.7063L23.1187 10.6969L23.25 10.6875L23.3812 10.6781L23.5125 10.6688H23.6437H23.775H23.9062H24.0375H24.1687H24.3H24.4312H24.5625L24.6937 10.6781L24.825 10.6875L24.9562 10.6969L25.0875 10.7063L25.2187 10.7156L25.35 10.725L25.4812 10.7344L25.6125 10.7531L25.7437 10.7719L25.875 10.7906L26.0062 10.8094L26.1375 10.8281L26.2687 10.8469L26.4 10.8656L26.5312 10.8938L26.6625 10.9219L26.7937 10.95L26.925 10.9781L27.0562 11.0063L27.1875 11.0344L27.3187 11.0625L27.45 11.1L27.5812 11.1375L27.7125 11.175L27.8437 11.2125L27.975 11.25L28.1062 11.2875L28.2375 11.325L28.3687 11.3719L28.4906 11.4188L28.6125 11.4656L28.7344 11.5125L28.8562 11.5594L28.9781 11.6063L29.1 11.6531L29.2219 11.7L29.2875 11.7281L29.4094 11.7844L29.5312 11.8406L29.6531 11.8969L29.775 11.9531L29.8969 12.0094L30.0187 12.0656L30.1406 12.1219L30.2625 12.1875L30.3844 12.2531L30.5062 12.3188L30.6187 12.3844L30.7312 12.45L30.8437 12.5156L30.9562 12.5813L31.0687 12.6469L31.1812 12.7219L31.2937 12.7969L31.4062 12.8719L31.5187 12.9469L31.6312 13.0219L31.7437 13.0969L31.8562 13.1719L31.9687 13.2469L32.0719 13.3313L32.175 13.4156L32.2781 13.5L32.3812 13.5844L32.4844 13.6688L32.5875 13.7531L32.6906 13.8375L32.7937 13.9219L32.8969 14.0063L33 14.1L33.1031 14.1938L33.1969 14.2875L33.2906 14.3813L33.3844 14.475L33.4781 14.5688L33.5344 14.625L33.6281 14.7188L33.7219 14.8125L33.8156 14.9063L33.9094 15L34.0031 15.1031L34.0875 15.2063L34.1719 15.3094L34.2562 15.4125L34.3406 15.5156L34.425 15.6188L34.5094 15.7219L34.5937 15.825L34.6781 15.9281L34.7625 16.0313L34.8375 16.1344L34.9125 16.2469L34.9875 16.3594L35.0625 16.4719L35.1375 16.5844L35.2125 16.6969L35.2875 16.8094L35.3625 16.9219L35.4375 17.0344L35.5031 17.1469L35.5687 17.2594L35.6344 17.3719L35.7 17.4844L35.7656 17.5969L35.8312 17.7188L35.8969 17.8406L35.9625 17.9625L36.0187 18.0844L36.075 18.2063L36.1312 18.3281L36.1875 18.45L36.2437 18.5719L36.3 18.6938L36.3562 18.8156L36.4031 18.9375L36.45 19.0594L36.4969 19.1813L36.5437 19.3031L36.5906 19.425L36.6375 19.5469L36.6844 19.6688L36.7312 19.8L36.7687 19.9313L36.8062 20.0625L36.8437 20.1938L36.8812 20.325L36.9187 20.4563L36.9562 20.5875L36.9937 20.7188L37.0219 20.85L37.05 20.9813L37.0781 21.1125L37.1062 21.2438L37.1344 21.375L37.1625 21.5063L37.1906 21.6375L37.2094 21.7688L37.2281 21.9L37.2469 22.0313L37.2656 22.1625L37.2844 22.2938L37.3031 22.425L37.3219 22.5563L37.3312 22.6875L37.3406 22.8188L37.35 22.95L37.3594 23.0813L37.3687 23.2125L37.3781 23.3438L37.3875 23.475V23.6063L37.3781 23.7375Z" fill="white"/>
    <path fill-rule="evenodd" clip-rule="evenodd" d="M11.5219 24C11.5219 17.1094 17.1094 11.5219 24 11.5219C30.8906 11.5219 36.4781 17.1094 36.4781 24C36.4781 30.8906 30.8906 36.4781 24 36.4781C17.1094 36.4781 11.5219 30.8906 11.5219 24ZM24.225 14.7281C24.6656 14.7281 25.0125 14.3719 25.0125 13.9406C25.0125 13.5094 24.6562 13.1531 24.225 13.1531C23.7937 13.1531 23.4375 13.5094 23.4375 13.9406C23.4375 14.3719 23.7937 14.7281 24.225 14.7281ZM22.575 14.6813C22.95 14.6813 23.25 14.3813 23.25 14.0063C23.25 13.6313 22.95 13.3313 22.575 13.3313C22.2 13.3313 21.9 13.6313 21.9 14.0063C21.9 14.3813 22.2094 14.6813 22.575 14.6813ZM28.6312 15.2625C28.9687 15.2625 29.25 14.9906 29.25 14.6438C29.25 14.3063 28.9781 14.025 28.6312 14.025C28.2937 14.025 28.0125 14.2969 28.0125 14.6438C28.0125 14.9813 28.2937 15.2625 28.6312 15.2625ZM26.1375 16.1813C26.7 16.1813 27.1594 15.7219 27.1594 15.1594C27.1594 14.5969 26.7 14.1375 26.1375 14.1375C25.575 14.1375 25.1156 14.5969 25.1156 15.1594C25.1062 15.7313 25.5656 16.1813 26.1375 16.1813ZM20.6812 16.65C21.3094 16.65 21.825 16.1344 21.825 15.5063C21.825 14.8688 21.3094 14.3625 20.6812 14.3625C20.0437 14.3625 19.5375 14.8781 19.5375 15.5063C19.5375 16.1344 20.0531 16.65 20.6812 16.65ZM30.1781 16.9406C30.7406 16.9406 31.1906 16.4906 31.1906 15.9281C31.1906 15.3656 30.7406 14.9156 30.1781 14.9156C29.6156 14.9156 29.1656 15.3656 29.1656 15.9281C29.1656 16.4906 29.6156 16.9406 30.1781 16.9406ZM23.2406 16.95C23.7468 16.95 24.1594 16.5375 24.1594 16.0313C24.1594 15.525 23.7468 15.1125 23.2406 15.1125C22.7343 15.1125 22.3219 15.525 22.3219 16.0313C22.3219 16.5375 22.7343 16.95 23.2406 16.95ZM27.975 17.175C28.4906 17.175 28.9031 16.7625 28.9031 16.2469C28.9031 15.7313 28.4906 15.3188 27.975 15.3188C27.4594 15.3188 27.0469 15.7313 27.0469 16.2469C27.0469 16.7625 27.4594 17.175 27.975 17.175ZM18.8812 16.7156C19.1062 16.7156 19.2937 16.5281 19.2937 16.3031C19.2937 16.0781 19.1062 15.8906 18.8812 15.8906C18.6562 15.8906 18.4687 16.0781 18.4687 16.3031C18.4687 16.5281 18.6562 16.7156 18.8812 16.7156ZM25.1812 17.0438C25.425 17.0438 25.6219 16.8469 25.6219 16.6031C25.6219 16.3594 25.425 16.1625 25.1812 16.1625C24.9375 16.1625 24.7406 16.3594 24.7406 16.6031C24.75 16.8469 24.9469 17.0438 25.1812 17.0438ZM20.0625 17.5406C20.2875 17.5406 20.475 17.3531 20.475 17.1281C20.475 16.9031 20.2875 16.7156 20.0625 16.7156C19.8375 16.7156 19.65 16.9031 19.65 17.1281C19.65 17.3531 19.8281 17.5406 20.0625 17.5406ZM26.2781 18.7406C26.8125 18.7406 27.2437 18.3094 27.2437 17.775C27.2437 17.2406 26.8125 16.8094 26.2781 16.8094C25.7437 16.8094 25.3125 17.2406 25.3125 17.775C25.3031 18.3 25.7437 18.7406 26.2781 18.7406ZM18.6 18.9281C19.1625 18.9281 19.6219 18.4688 19.6219 17.9063C19.6219 17.3438 19.1625 16.8844 18.6 16.8844C18.0375 16.8844 17.5781 17.3438 17.5781 17.9063C17.5687 18.4688 18.0281 18.9281 18.6 18.9281ZM22.7625 19.0781C23.3156 19.0781 23.7656 18.6281 23.7656 18.075C23.7656 17.5219 23.3156 17.0719 22.7625 17.0719C22.2094 17.0719 21.7594 17.5219 21.7594 18.075C21.7594 18.6375 22.2094 19.0781 22.7625 19.0781ZM29.5687 19.425C30.0844 19.425 30.4969 19.0031 30.4969 18.4969C30.4969 17.9813 30.075 17.5688 29.5687 17.5688C29.0531 17.5688 28.6406 17.9906 28.6406 18.4969C28.6312 19.0125 29.0531 19.425 29.5687 19.425ZM28.0594 18.6469C28.2844 18.6469 28.4719 18.4594 28.4719 18.2344C28.4719 18.0094 28.2844 17.8219 28.0594 17.8219C27.8344 17.8219 27.6469 18.0094 27.6469 18.2344C27.6469 18.4594 27.8344 18.6469 28.0594 18.6469ZM20.55 19.6875C21.0562 19.6875 21.4781 19.275 21.4781 18.7594C21.4781 18.2438 21.0656 17.8313 20.55 17.8313C20.0437 17.8313 19.6219 18.2438 19.6219 18.7594C19.6219 19.275 20.0437 19.6875 20.55 19.6875ZM24.7687 18.7031C25.0031 18.7031 25.2 18.5063 25.2 18.2719C25.2 18.0375 25.0031 17.8406 24.7687 17.8406C24.5344 17.8406 24.3375 18.0375 24.3375 18.2719C24.3375 18.5156 24.5344 18.7031 24.7687 18.7031ZM18.525 21.7031C19.2281 21.7031 19.8 21.1313 19.8 20.4281C19.8 19.725 19.2281 19.1531 18.525 19.1531C17.8219 19.1531 17.25 19.725 17.25 20.4281C17.25 21.1313 17.8219 21.7031 18.525 21.7031ZM22.875 21.7219C23.4375 21.7219 23.8969 21.2625 23.8969 20.7C23.8969 20.1375 23.4375 19.6781 22.875 19.6781C22.3125 19.6781 21.8531 20.1375 21.8531 20.7C21.8531 21.2719 22.3031 21.7219 22.875 21.7219ZM20.7937 22.0781C21.3 22.0781 21.7125 21.6656 21.7125 21.1594C21.7125 20.6531 21.3 20.2406 20.7937 20.2406C20.2875 20.2406 19.875 20.6531 19.875 21.1594C19.8656 21.6656 20.2781 22.0781 20.7937 22.0781ZM25.2937 22.7156C25.8094 22.7156 26.2312 22.2938 26.2312 21.7781C26.2312 21.2625 25.8094 20.8406 25.2937 20.8406C24.7781 20.8406 24.3562 21.2625 24.3562 21.7781C24.3562 22.2938 24.7687 22.7156 25.2937 22.7156ZM22.35 22.725C22.575 22.725 22.7625 22.5375 22.7625 22.3125C22.7625 22.0875 22.575 21.9 22.35 21.9C22.125 21.9 21.9375 22.0875 21.9375 22.3125C21.9375 22.5375 22.125 22.725 22.35 22.725ZM19.2093 23.775C19.725 23.775 20.1468 23.3531 20.1468 22.8375C20.1468 22.3219 19.725 21.9 19.2093 21.9C18.6937 21.9 18.2718 22.3219 18.2718 22.8375C18.2718 23.3531 18.6937 23.775 19.2093 23.775ZM27.375 22.8094C27.6094 22.8094 27.7875 22.6219 27.7875 22.3969C27.7875 22.1625 27.6 21.9844 27.375 21.9844C27.1406 21.9844 26.9625 22.1719 26.9625 22.3969C26.9531 22.6219 27.1406 22.8094 27.375 22.8094ZM23.7 24.2813C24.2719 24.2813 24.7406 23.8125 24.7406 23.2406C24.7406 22.6688 24.2719 22.2 23.7 22.2C23.1281 22.2 22.6594 22.6688 22.6594 23.2406C22.6594 23.8125 23.1281 24.2813 23.7 24.2813ZM21.375 24.6C21.9281 24.6 22.3875 24.15 22.3875 23.5875C22.3875 23.025 21.9375 22.575 21.375 22.575C20.8219 22.575 20.3625 23.025 20.3625 23.5875C20.3625 24.15 20.8219 24.6 21.375 24.6ZM26.6344 24.7969C27.1781 24.7969 27.6281 24.3563 27.6281 23.8031C27.6281 23.2594 27.1875 22.8094 26.6344 22.8094C26.0906 22.8094 25.6406 23.25 25.6406 23.8031C25.6406 24.3563 26.0812 24.7969 26.6344 24.7969ZM30.2156 24.3188C30.4406 24.3188 30.6281 24.1313 30.6281 23.9063C30.6281 23.6813 30.4406 23.4938 30.2156 23.4938C29.9906 23.4938 29.8031 23.6813 29.8031 23.9063C29.8031 24.1406 29.9906 24.3188 30.2156 24.3188ZM28.7437 25.5844C29.3062 25.5844 29.7656 25.125 29.7656 24.5625C29.7656 24 29.3062 23.5406 28.7437 23.5406C28.1812 23.5406 27.7219 24 27.7219 24.5625C27.7219 25.125 28.1812 25.5844 28.7437 25.5844ZM19.8187 24.6563C20.0437 24.6563 20.2312 24.4688 20.2312 24.2438C20.2312 24.0188 20.0437 23.8313 19.8187 23.8313C19.5937 23.8313 19.4062 24.0188 19.4062 24.2438C19.4156 24.4688 19.5937 24.6563 19.8187 24.6563ZM24.5062 26.1469C25.0125 26.1469 25.425 25.7344 25.425 25.2281C25.425 24.7219 25.0125 24.3094 24.5062 24.3094C24 24.3094 23.5875 24.7219 23.5875 25.2281C23.5875 25.7344 24 26.1469 24.5062 26.1469ZM22.6969 25.8375C23.0906 25.8375 23.4 25.5188 23.4 25.1344C23.4 24.75 23.0812 24.4313 22.6969 24.4313C22.3031 24.4313 21.9937 24.75 21.9937 25.1344C21.9937 25.5188 22.3031 25.8375 22.6969 25.8375ZM30.4875 26.8594C31.0312 26.8594 31.4719 26.4188 31.4719 25.875C31.4719 25.3313 31.0312 24.8906 30.4875 24.8906C29.9437 24.8906 29.5031 25.3313 29.5031 25.875C29.5031 26.4188 29.9437 26.8594 30.4875 26.8594ZM26.7656 26.8219C27.2719 26.8219 27.6844 26.4094 27.6844 25.9031C27.6844 25.3969 27.2719 24.9844 26.7656 24.9844C26.2594 24.9844 25.8469 25.3969 25.8469 25.9031C25.8469 26.4094 26.2594 26.8219 26.7656 26.8219ZM28.5562 27.8906C29.0812 27.8906 29.5125 27.4594 29.5125 26.9344C29.5125 26.4094 29.0812 25.9781 28.5562 25.9781C28.0312 25.9781 27.6 26.4094 27.6 26.9344C27.6 27.4594 28.0312 27.8906 28.5562 27.8906ZM25.575 27.6C25.8656 27.6 26.1 27.3656 26.1 27.075C26.1 26.7844 25.8656 26.55 25.575 26.55C25.2844 26.55 25.05 26.7844 25.05 27.075C25.05 27.3656 25.2844 27.6 25.575 27.6ZM31.6219 29.025C32.1656 29.025 32.5969 28.5844 32.5969 28.05C32.5969 27.5063 32.1562 27.075 31.6219 27.075C31.0781 27.075 30.6469 27.5156 30.6469 28.05C30.6469 28.5938 31.0875 29.025 31.6219 29.025ZM26.7656 29.1188C27.2719 29.1188 27.6844 28.7063 27.6844 28.2C27.6844 27.6938 27.2719 27.2813 26.7656 27.2813C26.2594 27.2813 25.8469 27.6938 25.8469 28.2C25.8469 28.7063 26.2594 29.1188 26.7656 29.1188ZM19.05 29.4563C19.425 29.4563 19.725 29.1563 19.725 28.7813C19.725 28.4063 19.425 28.1063 19.05 28.1063C18.675 28.1063 18.375 28.4063 18.375 28.7813C18.375 29.1563 18.675 29.4563 19.05 29.4563ZM20.7562 30.1969C21.2625 30.1969 21.675 29.7844 21.675 29.2781C21.675 28.7719 21.2625 28.3594 20.7562 28.3594C20.25 28.3594 19.8375 28.7719 19.8375 29.2781C19.8375 29.7844 20.25 30.1969 20.7562 30.1969ZM28.8656 30.0094C29.2031 30.0094 29.4844 29.7375 29.4844 29.3906C29.4844 29.0531 29.2125 28.7719 28.8656 28.7719C28.5281 28.7719 28.2469 29.0438 28.2469 29.3906C28.2469 29.7375 28.5281 30.0094 28.8656 30.0094ZM30.6094 30.7969C31.1156 30.7969 31.5281 30.3844 31.5281 29.8781C31.5281 29.3719 31.1156 28.9594 30.6094 28.9594C30.1031 28.9594 29.6906 29.3719 29.6906 29.8781C29.6906 30.3844 30.1031 30.7969 30.6094 30.7969ZM25.6875 30.9281C26.2219 30.9281 26.6531 30.4969 26.6531 29.9625C26.6531 29.4281 26.2219 28.9969 25.6875 28.9969C25.1531 28.9969 24.7219 29.4281 24.7219 29.9625C24.7219 30.4969 25.1531 30.9281 25.6875 30.9281ZM23.4844 31.5C24.0375 31.5 24.4969 31.05 24.4969 30.4875C24.4969 29.925 24.0469 29.475 23.4844 29.475C22.9312 29.475 22.4719 29.925 22.4719 30.4875C22.4719 31.05 22.9219 31.5 23.4844 31.5ZM17.8968 30.9563C18.2531 30.9563 18.5437 30.6656 18.5437 30.3094C18.5437 29.9531 18.2531 29.6625 17.8968 29.6625C17.5406 29.6625 17.25 29.9531 17.25 30.3094C17.25 30.675 17.5406 30.9563 17.8968 30.9563ZM27.75 31.8C28.3031 31.8 28.7531 31.35 28.7531 30.7969C28.7531 30.2438 28.3031 29.7938 27.75 29.7938C27.1969 29.7938 26.7469 30.2438 26.7469 30.7969C26.7469 31.35 27.1969 31.8 27.75 31.8ZM21.5906 32.3625C22.0969 32.3625 22.5094 31.95 22.5094 31.4438C22.5094 30.9375 22.0969 30.525 21.5906 30.525C21.0844 30.525 20.6719 30.9375 20.6719 31.4438C20.6625 31.95 21.075 32.3625 21.5906 32.3625ZM19.3875 32.5969C19.9219 32.5969 20.3625 32.1656 20.3625 31.6219C20.3625 31.0781 19.9312 30.6469 19.3875 30.6469C18.8531 30.6469 18.4125 31.0781 18.4125 31.6219C18.4125 32.1656 18.8531 32.5969 19.3875 32.5969ZM29.7375 32.625C30.2437 32.625 30.6562 32.2125 30.6562 31.7063C30.6562 31.2 30.2437 30.7875 29.7375 30.7875C29.2312 30.7875 28.8187 31.2 28.8187 31.7063C28.8094 32.2125 29.2219 32.625 29.7375 32.625ZM26.3062 32.1563C26.5312 32.1563 26.7187 31.9688 26.7187 31.7438C26.7187 31.5188 26.5312 31.3313 26.3062 31.3313C26.0812 31.3313 25.8937 31.5188 25.8937 31.7438C25.8937 31.9688 26.0812 32.1563 26.3062 32.1563ZM17.5312 32.9344C17.9062 32.9344 18.2156 32.625 18.2156 32.25C18.2156 31.875 17.9062 31.5656 17.5312 31.5656C17.1562 31.5656 16.8469 31.875 16.8469 32.25C16.8469 32.6344 17.1469 32.9344 17.5312 32.9344ZM25.2 33.7031C25.7062 33.7031 26.1187 33.2906 26.1187 32.7844C26.1187 32.2781 25.7062 31.8656 25.2 31.8656C24.6937 31.8656 24.2812 32.2781 24.2812 32.7844C24.2719 33.2906 24.6844 33.7031 25.2 33.7031ZM27.4312 34.3781C28.0781 34.3781 28.5937 33.8531 28.5937 33.2156C28.5937 32.5688 28.0687 32.0531 27.4312 32.0531C26.7844 32.0531 26.2687 32.5781 26.2687 33.2156C26.2687 33.8531 26.7844 34.3781 27.4312 34.3781ZM23.2219 34.3219C23.7469 34.3219 24.1687 33.9 24.1687 33.375C24.1687 32.85 23.7469 32.4281 23.2219 32.4281C22.6969 32.4281 22.275 32.85 22.275 33.375C22.275 33.9 22.6969 34.3219 23.2219 34.3219ZM19.7437 33.9844C20.0812 33.9844 20.3625 33.7125 20.3625 33.3656C20.3625 33.0281 20.0906 32.7469 19.7437 32.7469C19.4062 32.7469 19.125 33.0188 19.125 33.3656C19.125 33.7031 19.4062 33.9844 19.7437 33.9844ZM21.525 34.5375C21.8812 34.5375 22.1719 34.2469 22.1719 33.8906C22.1719 33.5344 21.8812 33.2438 21.525 33.2438C21.1687 33.2438 20.8781 33.5344 20.8781 33.8906C20.8781 34.2469 21.1687 34.5375 21.525 34.5375ZM25.6875 34.7531C25.9312 34.7531 26.1281 34.5563 26.1281 34.3125C26.1281 34.0688 25.9312 33.8719 25.6875 33.8719C25.4437 33.8719 25.2469 34.0688 25.2469 34.3125C25.2469 34.5563 25.4437 34.7531 25.6875 34.7531Z" fill="white"/>
    <path d="M2.56874 29.4469C2.80311 30.3281 3.68436 31.05 4.69687 30.7781C5.26874 30.6281 5.67187 30.1125 5.82187 29.3719C5.97187 28.6406 5.99999 28.0125 6.39374 27.9094C6.89999 27.7781 7.06874 28.2844 7.13437 28.5563C7.29374 29.1656 6.87187 30.0469 6.87187 30.0469L8.08124 30.3938C8.08124 30.3938 8.59687 29.4281 8.25937 28.1625C7.97812 27.1031 7.25624 26.2313 5.96249 26.5781C5.24999 26.7656 4.91249 27.5719 4.81874 28.2469C4.71562 28.9406 4.64062 29.5125 4.33124 29.5875C4.03124 29.6625 3.78749 29.4938 3.67499 29.0719C3.52499 28.5094 3.75936 27.8719 3.75936 27.8719L2.63437 27.6281C2.64374 27.6188 2.31561 28.4625 2.56874 29.4469Z" fill="white"/>
    <path d="M4.84685 24.4407C4.01248 24.3938 3.19685 23.8875 3.24373 22.9032C3.29998 21.9094 4.1531 21.5063 4.99685 21.5438C5.83123 21.5907 6.64685 22.05 6.59998 23.0719C6.54373 24.1313 5.6906 24.4875 4.84685 24.4407ZM4.77185 25.8282C6.41248 25.9125 7.7531 24.8063 7.83748 23.1469C7.92185 21.5344 6.71248 20.25 5.07185 20.1657C3.43123 20.0813 2.0906 21.2813 2.0156 22.8375C1.93123 24.3844 3.13123 25.7438 4.77185 25.8282Z" fill="white"/>
    <path d="M8.03433 16.7906C7.56558 17.9906 6.51558 18.1875 5.81246 17.9063C5.11871 17.625 4.49058 16.7719 4.95933 15.5719C5.20308 14.9625 5.69058 14.6719 5.69058 14.6719L4.87496 13.7625C4.87496 13.7625 4.16246 14.1563 3.71246 15.2906C3.12183 16.7719 3.80621 18.6094 5.30621 19.2094C6.80621 19.8 8.54996 18.9281 9.13121 17.4469C9.58121 16.3125 9.32808 15.5344 9.32808 15.5344L8.10933 15.6375C8.11871 15.6375 8.27808 16.1813 8.03433 16.7906Z" fill="white"/>
    <path d="M6.1125 10.9875L5.39062 12.0469L10.0406 15.225L10.7625 14.1656L6.1125 10.9875Z" fill="white"/>
    <path d="M11.9625 9.90001L11.025 10.7531L10.3781 9.12189L10.3875 9.11251L11.9625 9.90001ZM9.64684 7.43439L8.77496 8.24064L10.9031 13.9313L11.9156 13.0031L11.4656 11.8875L13.05 10.4438L14.1187 10.9969L15.1312 10.0688L9.64684 7.43439Z" fill="white"/>
    <path d="M13.875 4.40628L12.7312 4.97816L15.2437 10.0219L18.1312 8.58753L17.625 7.57503L15.8812 8.43753L13.875 4.40628Z" fill="white"/>
    <path d="M24.9281 7.90314H26.3437L27.9469 2.26877H26.5312L25.5656 6.13127H25.5281L24.5062 2.26877H23.5406L22.5187 6.13127H22.4812L21.5156 2.26877H20.0906L21.6937 7.90314H23.1187L24.0187 4.74377L24.9281 7.90314Z" fill="white"/>
    <path d="M30.3187 5.16564L30.3281 5.17501L31.1062 9.25314L32.2969 9.73126L34.3875 4.50001L33.1969 4.02189L31.9031 7.26564L31.8937 7.25626L31.1156 3.17814L29.925 2.70001L27.8344 7.93126L29.025 8.40939L30.3187 5.16564Z" fill="white"/>
    <path d="M38.0625 6.94689C37.3593 6.37501 36.2156 6.30939 35.55 7.13439C35.1843 7.59376 35.1562 8.25001 35.475 8.93439C35.7843 9.61876 36.1406 10.1344 35.8781 10.4531C35.55 10.8656 35.1187 10.5469 34.9031 10.3688C34.4156 9.97501 34.2281 9.00939 34.2281 9.00939L33.0468 9.44064C33.0468 9.44064 33.1968 10.5188 34.2281 11.3531C35.0812 12.0469 36.1781 12.3188 37.0218 11.2781C37.4812 10.7063 37.2843 9.85314 36.9656 9.25314C36.6375 8.63439 36.3656 8.12814 36.5625 7.88439C36.7593 7.65001 37.0593 7.64064 37.3968 7.91251C37.8468 8.27814 38.0343 8.93439 38.0343 8.93439L39.0843 8.46564C39.0937 8.45626 38.8593 7.58439 38.0625 6.94689Z" fill="white"/>
    <path d="M41.3156 14.2594L41.325 14.2688L39.1687 17.8219L39.7312 18.975L44.7844 16.5L44.2219 15.3469L41.0906 16.875L41.0812 16.8656L43.2375 13.3125L42.675 12.1594L37.6219 14.6344L38.1844 15.7875L41.3156 14.2594Z" fill="white"/>
    <path d="M46.0125 21.8719L45.4687 18.6938L39.9187 19.6406L40.4625 22.8188L41.5687 22.6313L41.2406 20.7188L42.3562 20.5313L42.6656 22.3594L43.7719 22.1719L43.4625 20.3438L44.5687 20.1563L44.8969 22.0688L46.0125 21.8719Z" fill="white"/>
    <path d="M39.7219 27.5625L39.4875 28.9594L44.775 31.4719L45.0094 30.075L41.3531 28.4906L41.3625 28.4531L45.3375 28.0781L45.4969 27.1219L41.8594 25.4813L41.8687 25.4438L45.8344 25.1344L46.0687 23.7281L40.2469 24.3844L40.0125 25.7906L42.9844 27.1969L39.7219 27.5625Z" fill="white"/>
    <path fill-rule="evenodd" clip-rule="evenodd" d="M7.90311 6.30001C5.66249 8.34376 3.87186 10.7156 2.54061 13.425C1.24686 16.05 0.468735 18.8156 0.187485 21.7406C-0.0937649 24.6563 0.15936 27.525 0.937485 30.3469C1.73436 33.2531 3.04686 35.925 4.86561 38.3531C4.86561 38.3531 4.86561 38.3531 4.87499 38.3625C7.13436 41.3719 9.94686 43.7156 13.3125 45.4031C16.6781 47.0906 20.25 47.925 24.0094 47.925C27.7781 47.925 31.3406 47.0813 34.7062 45.4031C38.0719 43.7156 40.8844 41.3719 43.1437 38.3625C44.9625 35.9344 46.275 33.2625 47.0719 30.3563C47.85 27.5344 48.0937 24.6656 47.8219 21.75C47.5406 18.8344 46.7625 16.0594 45.4687 13.4344C44.1375 10.725 42.3469 8.35314 40.1062 6.30939C37.8656 4.26564 35.325 2.70939 32.5031 1.64064C29.7656 0.590637 26.9344 0.0750122 24 0.0750122C21.0656 0.0750122 18.2344 0.590637 15.4969 1.63126C12.675 2.70001 10.1437 4.25626 7.90311 6.30001ZM8.61561 22.5375C8.24999 26.4 9.19686 29.8875 11.4375 33L5.19374 37.6875C3.52499 35.4 2.31561 32.8969 1.56561 30.1688C0.81561 27.4313 0.57186 24.6375 0.843735 21.7969C1.11561 18.9563 1.87499 16.2656 3.13124 13.7156C4.42499 11.0813 6.16874 8.77501 8.35311 6.78751C10.5375 4.80001 12.9937 3.29064 15.7406 2.25001C18.3937 1.24689 21.15 0.740637 24 0.740637C26.85 0.740637 29.6062 1.24689 32.2594 2.25001C35.0062 3.29064 37.4625 4.80001 39.6469 6.78751C41.8312 8.77501 43.5656 11.0813 44.8687 13.7156C46.125 16.2656 46.8844 18.9563 47.1562 21.7969C47.4281 24.6375 47.1844 27.4219 46.4344 30.1688C45.6844 32.8875 44.475 35.4 42.8062 37.6875L36.5625 33C38.8125 29.8781 39.75 26.3906 39.3844 22.5375C39.0094 18.5719 37.35 15.2438 34.3969 12.5625C31.4531 9.88126 27.9844 8.54064 24 8.54064C20.0156 8.54064 16.5469 9.88126 13.6031 12.5625C10.6594 15.2531 8.99061 18.5719 8.61561 22.5375ZM38.7187 22.6031C39.075 26.4 38.1187 29.8219 35.8312 32.8688C34.4344 34.725 32.7 36.1781 30.6187 37.2188C28.5375 38.2594 26.3344 38.7844 24.0094 38.7844C21.6844 38.7844 19.4812 38.2688 17.4 37.2188C15.3187 36.1781 13.5844 34.725 12.1875 32.8688C9.89998 29.8219 8.93436 26.4 9.29999 22.6031C9.65624 18.8063 11.25 15.6281 14.0719 13.0594C16.8937 10.4906 20.2125 9.21564 24.0187 9.21564C27.8344 9.21564 31.1437 10.5 33.9656 13.0594C36.7687 15.6281 38.3625 18.8063 38.7187 22.6031ZM11.7937 37.9313L10.7156 39.2438L11.2125 39.6563C11.4844 39.8813 11.7656 39.8625 11.9437 39.6469C12.1219 39.4313 12.075 39.2531 11.9344 39.0844C12.0937 39.1219 12.2344 39.0563 12.3281 38.9344C12.5344 38.6813 12.4219 38.4563 12.1969 38.2688L11.7937 37.9313ZM36.1969 37.9406L35.4469 38.5594L36.5344 39.8625L37.2844 39.2438L37.0687 38.9813L36.6187 39.3563L36.4031 39.0938L36.8344 38.7375L36.6187 38.475L36.1875 38.8313L35.9719 38.5688L36.4219 38.1938L36.1969 37.9406ZM11.6719 38.6906L11.9062 38.4094L11.9344 38.4281C12.0656 38.5313 12.1031 38.6344 12.0281 38.7281C11.9344 38.8406 11.8312 38.8219 11.7094 38.7188L11.6719 38.6906ZM34.3687 39.3563L35.1562 38.7938L35.3531 39.0656L34.875 39.4031L35.0719 39.675L35.5312 39.3469L35.7281 39.6188L35.2687 39.9469L35.4656 40.2281L35.9437 39.8906L36.1406 40.1625L35.3531 40.725L34.3687 39.3563ZM13.7719 39.45L12.975 38.8969L12 40.275L12.7969 40.8281L12.9937 40.5469L12.5156 40.2094L12.7125 39.9281L13.1719 40.2469L13.3687 39.9656L12.9094 39.6469L13.1062 39.375L13.5844 39.7125L13.7719 39.45ZM11.2031 39.2625L11.4562 38.9531L11.55 39.0281C11.6906 39.1406 11.7375 39.2531 11.6344 39.375C11.55 39.4781 11.4375 39.4594 11.2969 39.3375L11.2031 39.2625ZM32.9812 40.2L33.8625 41.6531L34.1906 41.4563L33.8437 40.875L34.6312 41.1844L35.0531 40.9313L34.1906 40.6313C34.3312 40.4719 34.3687 40.2469 34.2375 40.0313C34.0687 39.75 33.7687 39.7219 33.5062 39.8906L32.9812 40.2ZM13.9031 40.1063C14.0625 39.8344 14.4094 39.8063 14.6437 39.9469C14.9062 40.1063 15.0187 40.35 15.0187 40.35L14.7281 40.5375C14.7281 40.5375 14.6437 40.35 14.4937 40.2656C14.3812 40.2 14.2875 40.2188 14.2406 40.2938C14.1937 40.3781 14.2969 40.5188 14.4187 40.6781C14.5406 40.8469 14.6344 41.0906 14.5219 41.2781C14.3156 41.625 13.9781 41.5875 13.6969 41.4188C13.3594 41.2125 13.2656 40.9031 13.2656 40.9031L13.5937 40.725C13.5937 40.725 13.6875 41.0063 13.8562 41.1C13.9312 41.1469 14.0719 41.2219 14.1562 41.0813C14.2031 40.9969 14.1375 40.8844 14.0344 40.7438C14.0156 40.7156 13.9875 40.6781 13.9687 40.6406C13.8281 40.4531 13.8094 40.2563 13.9031 40.1063ZM33.7031 40.6406L33.4687 40.2563L33.5062 40.2281C33.6281 40.1531 33.7875 40.0688 33.9 40.2563C34.0125 40.4344 33.8625 40.5375 33.7406 40.6125L33.7031 40.6406ZM31.8187 40.8L32.7 40.3594L32.85 40.6594L32.3156 40.9219L32.4656 41.2219L32.9531 40.9781L33.1031 41.2781L32.6156 41.5219L32.9156 42.1313L32.5687 42.3L31.8187 40.8ZM15.1687 40.6688L15.5344 40.8469L14.9344 42.0656L15.2812 42.2344L15.8812 41.0156L16.2469 41.1938L16.3969 40.8938L15.3281 40.3688L15.1687 40.6688ZM29.6156 41.6531L30.1875 43.2469L30.5531 43.1156L30.3281 42.4875L31.0406 42.9469L31.5 42.7781L30.7125 42.3188C30.8812 42.1875 30.9562 41.9813 30.8719 41.7375C30.7594 41.4281 30.4781 41.3438 30.1781 41.4469L29.6156 41.6531ZM17.8031 42.2344L18.5437 42.4875L18.4219 42.8344C18.1969 43.2094 17.7937 43.2656 17.4844 43.1625C17.0531 43.0125 16.8281 42.525 16.9875 42.0656C17.1469 41.6063 17.6062 41.3438 18.0562 41.5031C18.3375 41.5969 18.4969 41.775 18.5812 41.9906L18.2531 42.1688C18.2062 41.9906 18.1031 41.8875 17.9625 41.8406C17.7375 41.7656 17.475 41.925 17.3812 42.2063C17.2875 42.4781 17.4 42.7594 17.625 42.8438C17.8031 42.9 18.0094 42.8531 18.075 42.6563L17.7094 42.5344L17.8031 42.2344ZM30.2344 42.2344L30.0844 41.8125L30.1312 41.7938C30.2719 41.7469 30.4406 41.6906 30.5062 41.8969C30.5719 42.1031 30.4125 42.1688 30.2812 42.2156L30.2344 42.2344ZM28.9125 43.6313C28.425 43.7531 27.9937 43.4625 27.8719 42.9844C27.75 42.5063 28.0406 42.0375 28.4906 41.925C28.95 41.8125 29.4094 42.0938 29.5312 42.5719C29.6531 43.05 29.3906 43.5094 28.9125 43.6313ZM19.9219 42.0469L19.575 41.9625L18.5156 43.4531L18.9187 43.5469L19.1156 43.2469L19.7437 43.3969L19.7906 43.7531L20.1937 43.8469L19.9219 42.0469ZM27.4219 42.2063L26.4562 42.3656L26.7281 44.0438L27.1125 43.9781L27.0094 43.3031L27.5531 43.2188L27.4969 42.8813L26.9531 42.9656L26.8969 42.6281L27.4875 42.5344L27.4219 42.2063ZM22.3312 44.1469L21.9469 44.1L21.9937 43.0969H21.9844L21.5156 44.0438L21.2906 44.0156L21.075 42.9844H21.0656L20.8594 43.9688L20.475 43.9219L20.8406 42.2625L21.2531 42.3188L21.4969 43.3406L21.9937 42.4219L22.4062 42.4781L22.3312 44.1469ZM28.5844 42.2813C28.2937 42.3563 28.2187 42.6375 28.2844 42.8813C28.35 43.125 28.5281 43.3406 28.8281 43.2656C29.1281 43.1906 29.1937 42.9188 29.1281 42.6656C29.0625 42.4219 28.875 42.2063 28.5844 42.2813ZM24.2812 43.0031C24.2719 42.6844 24.5437 42.4781 24.8156 42.4594C25.125 42.45 25.35 42.6 25.35 42.6L25.2094 42.9188C25.2094 42.9188 25.0406 42.8063 24.8625 42.8156C24.7312 42.825 24.6656 42.8813 24.6656 42.975C24.6656 43.0688 24.8344 43.1344 25.0312 43.2094C25.2281 43.2844 25.4344 43.4344 25.4437 43.6594C25.4625 44.0625 25.1531 44.2219 24.825 44.2313C24.4312 44.25 24.1781 44.0344 24.1781 44.0344L24.3562 43.7063C24.3562 43.7063 24.5906 43.8844 24.7781 43.8844C24.8625 43.8844 25.0219 43.8656 25.0125 43.7063C25.0031 43.5844 24.825 43.5375 24.6187 43.4438C24.4125 43.3313 24.2812 43.1813 24.2812 43.0031ZM23.8125 42.525L22.8469 42.4875L22.7812 44.1844L23.7469 44.2219L23.7562 43.8844L23.175 43.8656L23.1844 43.5281L23.7469 43.5469L23.7562 43.2094L23.1937 43.1906L23.2031 42.8531L23.7844 42.8719L23.8125 42.525ZM19.6969 43.0406L19.3219 42.9563L19.6219 42.5156L19.6969 43.0406Z" fill="white"/>
</svg>